HIERARCHY
ROOT Hips
{
	OFFSET 0.00000 0.00000 0.00000
	CHANNELS 6 Xposition Yposition Zposition Yrotation Zrotation Xrotation 
	JOINT Lumbar
	{
		OFFSET 0 0 0
		CHANNELS 3 Zrotation Xrotation Yrotation
		JOINT Neck
		{
			OFFSET 0.00 0.2701 0.00
			CHANNELS 3 Zrotation Xrotation Yrotation
			End Site
			{
				OFFSET 0.00 0.1379 0.00
			}
		}
		JOINT RightShoulder
		{
			OFFSET 0.0119 0.2289 0.1181
			CHANNELS 3 Zrotation Xrotation Yrotation
			JOINT RightElbow
			{
				OFFSET 0.00 -0.1475 0.00
				CHANNELS 2 Zrotation Yrotation
				JOINT RightWrist
				{
					OFFSET 0.00 -0.1605 0.00
					CHANNELS 2 Zrotation Xrotation
					End Site
					{
						OFFSET 0.0040 -0.1068 0.0006
					}
				}
			}
		}
		JOINT LeftShoulder
		{
			OFFSET 0.0119 0.2289 -0.1181
			CHANNELS 3 Zrotation Xrotation Yrotation
			JOINT LeftElbow
			{
				OFFSET 0.00 -0.1475 0.00
				CHANNELS 2 Zrotation Yrotation
				JOINT LeftWrist
				{
					OFFSET 0.00 -0.1605 0.00
					CHANNELS 2 Zrotation Xrotation
					End Site
					{
						OFFSET 0.0040 -0.1068 -0.0006
					}
				}
			}
		}
	}
	JOINT RightHip
	{
		OFFSET 0.0316 -0.0424 0.0458
		CHANNELS 3 Zrotation Xrotation Yrotation
		JOINT RightKnee
		{
			OFFSET 0.00 -0.2438 0.00
			CHANNELS 1 Zrotation
			JOINT RightAnkle
			{
				OFFSET 0.00 -0.2449 0.00
				CHANNELS 3 Zrotation Xrotation Yrotation
				End Site
				{
					OFFSET 0.1237 -0.0542 0.0051
				}
			}
		}
	}
	JOINT LeftHip
	{
		OFFSET 0.0316 -0.0424 -0.0458
		CHANNELS 3 Zrotation Xrotation Yrotation
		JOINT LeftKnee
		{
			OFFSET 0.00 -0.2438 0.00
			CHANNELS 1 Zrotation
			JOINT LeftAnkle
			{
				OFFSET 0.00 -0.2449 0.00
				CHANNELS 3 Zrotation Xrotation Yrotation
				End Site
				{
					OFFSET 0.1237 -0.0542 -0.0051
				}
			}
		}
	}
}
MOTION
Frames: 24
Frame Time: 0.02
-0.61931 -0.61745 0.02349 110.30265 23.43629 -38.17137 16.84338 4.8627 6.56769 -61.35195 34.56381 -2.11994 18.48652 -59.89308 -2.76569 31.71579 114.57602 -44.25025 -6.92937 -62.56697 -16.21462 87.14683 53.39666 -75.84192 -75.22916 21.88523 123.42964 -9.69929 35.34216 -138.36361 -15.91137 11.61761 3.26805 115.27468 11.8889 6.1265 -74.78191 -12.81945 4.65363 4.8575
-0.61948 -0.61747 0.02298 112.55265 24.41546 -39.46802 14.96817 4.98209 5.40771 -61.82171 34.3795 -2.11994 8.57388 -60.43745 -10.49915 28.3548 113.47221 -43.17676 -6.8113 -62.56697 -16.21462 87.14683 52.735 -75.91593 -75.22916 21.88522 121.83818 -12.5121 35.31686 -138.50114 -16.49845 11.86688 3.39447 113.23806 11.53792 6.70893 -75.27629 -12.68372 4.65573 4.85078
-0.61946 -0.61755 0.02251 115.37111 25.70144 -41.05766 12.54463 5.02321 4.00795 -62.2616 34.35976 -2.11994 -2.87589 -59.55064 -18.35199 25.29374 111.86381 -41.6438 -6.67238 -62.56697 -16.21462 87.14683 51.91877 -75.97623 -75.22917 21.88523 119.80906 -15.93654 35.2453 -138.64896 -17.15917 11.62186 3.27352 110.60101 11.07178 7.34707 -75.81281 -12.53525 4.6574 4.84312
-0.61952 -0.61762 0.02203 117.84662 26.8134 -42.45839 10.44257 5.10412 2.73806 -62.69979 34.22429 -2.11994 -13.45997 -59.23375 -25.86868 22.16186 110.44979 -40.31851 -6.54413 -62.56697 -16.21462 87.14683 51.16412 -76.04257 -75.22916 21.88521 118.05965 -18.98517 35.20153 -138.79225 -17.77578 11.61713 3.27284 108.31269 10.67085 7.93787 -76.31129 -12.40008 4.65915 4.83625
-0.61962 -0.61764 0.02151 120.67874 28.06937 -44.093 8.03479 5.17013 1.38262 -63.20247 34.25263 -2.11994 -24.81791 -59.23346 -34.54605 18.72692 108.99364 -38.87684 -6.40864 -62.56697 -16.21462 87.14683 50.45042 -76.10924 -75.22917 21.88521 115.97669 -22.4502 35.13296 -138.93528 -18.44581 11.57187 3.25188 105.70694 10.21747 8.6252 -76.89089 -12.23318 4.66135 4.82781
-0.61957 -0.61776 0.0211 122.90458 29.10214 -45.31145 6.13149 5.24931 0.14691 -63.56388 33.97852 -2.11994 -34.8895 -58.24416 -40.89436 16.00033 107.61752 -37.61981 -6.29543 -62.56697 -16.21462 87.14683 49.61439 -76.17211 -75.22917 21.88521 114.47584 -25.18888 35.10183 -139.08107 -19.01519 11.4777 3.20636 103.61589 9.8454 9.12131 -77.31181 -12.12924 4.66252 4.82243
-0.61919 -0.61813 0.02099 123.30108 29.40374 -45.29739 5.78487 5.35961 -0.69444 -63.54033 32.87647 -2.11994 -41.19675 -54.85114 -40.15831 15.22303 106.08356 -36.92417 -6.10408 -62.56697 -16.21461 87.14683 48.46186 -76.22827 -75.22916 21.8852 114.76407 -25.81112 35.20872 -139.23341 -19.33469 11.44749 3.19321 103.12872 9.7238 9.10242 -77.27427 -12.20344 4.66096 4.82577
-0.61865 -0.6186 0.021 123.07066 29.47642 -44.85579 5.9606 5.48861 -1.4089 -63.37597 31.45794 -2.11994 -46.11856 -50.51662 -37.17357 15.14881 104.74913 -36.45647 -5.95775 -62.56697 -16.21461 87.14683 47.19402 -76.28099 -75.22916 21.8852 115.64131 -25.67554 35.35114 -139.388 -19.54227 11.36988 3.15616 103.1743 9.68777 8.8853 -77.07725 -12.34104 4.6584 4.83222
-0.61818 -0.61903 0.02096 123.13772 29.6809 -44.61874 5.87728 5.62574 -2.18429 -63.27747 30.15441 -2.11994 -51.55932 -46.63492 -35.64048 14.70269 103.68967 -35.94295 -5.88884 -62.56697 -16.21461 87.14683 45.98869 -76.3352 -75.22916 21.8852 116.19707 -25.85949 35.46065 -139.54043 -19.7688 11.25762 3.10145 102.95174 9.6142 8.73964 -76.95926 -12.44914 4.65629 4.83722
-0.61773 -0.61943 0.02091 123.17168 29.78259 -44.35216 5.86295 5.69457 -2.95165 -63.17011 28.97588 -2.11994 -57.52075 -42.60951 -32.35247 14.45268 101.11885 -35.174 -5.42108 -62.56697 -16.2146 87.14683 44.73453 -76.38958 -75.22916 21.88516 116.95585 -26.16351 35.6358 -139.69751 -20.12802 11.35758 3.15459 102.81536 9.53246 8.6693 -76.81449 -12.56054 4.65418 4.84236
-0.61718 -0.61991 0.02091 123.11815 30.03539 -44.03732 5.84023 5.90541 -3.70572 -63.04806 27.46253 -2.11994 -62.04996 -38.66359 -32.11554 14.00115 101.6845 -34.98934 -5.77628 -62.56697 -16.21461 87.14683 43.5578 -76.44255 -75.22916 21.88521 117.44847 -26.03733 35.68774 -139.84597 -20.18921 11.02076 2.98574 102.6373 9.48766 8.40089 -76.68786 -12.67923 4.65187 4.84794
-0.61642 -0.62061 0.02105 122.97395 30.80048 -43.73091 5.63303 6.55365 -4.42371 -62.92063 25.07898 -2.11994 -62.93782 -35.3102 -41.44368 12.43854 111.44153 -36.44085 -8.55411 -62.56697 -16.21462 87.14684 42.61447 -76.49624 -75.2292 21.88551 116.96578 -24.83502 35.35044 -139.9642 -19.4028 9.40336 2.16632 102.18877 9.54073 7.57402 -76.64605 -12.81206 4.64881 4.85432
-0.61553 -0.62138 0.02124 122.76053 31.71748 -43.38284 5.4074 7.33585 -5.13606 -62.78306 22.37397 -2.11994 -62.42832 -32.05499 -53.81114 10.71317 124.24503 -38.46062 -12.12896 -62.56698 -16.21464 87.14685 41.75564 -76.54801 -75.22924 21.88588 116.21303 -23.23446 34.89425 -140.07474 -18.32919 7.36625 1.13354 101.68883 9.62558 6.56372 -76.63054 -12.94854 4.64564 4.86098
-0.61467 -0.62209 0.02141 122.57807 32.53677 -43.02734 5.21623 8.02368 -5.87121 -62.65013 19.82917 -2.11994 -62.56818 -28.66213 -64.39718 9.31907 135.27427 -40.17133 -15.23282 -62.56698 -16.21466 87.14686 40.86423 -76.59828 -75.22927 21.88619 115.65181 -21.86411 34.52098 -140.19255 -17.42136 5.5805 0.22834 101.23033 9.68525 5.67884 -76.60306 -13.07696 4.64291 4.86733
-0.61396 -0.6229 0.02158 122.37785 33.46606 -42.76616 4.93689 8.85102 -6.52131 -62.51312 17.20956 -2.11994 -62.60296 -25.60746 -76.58632 6.88687 147.94725 -42.10385 -18.79596 -62.56699 -16.21468 87.14687 39.94318 -76.65845 -75.22932 21.8866 114.82876 -20.26862 34.03283 -140.29443 -16.36268 3.53794 -0.80658 100.7087 9.7926 4.61715 -76.56204 -13.23382 4.63871 4.87464
-0.61289 -0.62353 0.02176 122.20421 34.20933 -42.30698 4.82497 9.42246 -7.34299 -62.38279 14.67887 -2.11994 -62.53922 -21.91022 -86.19757 6.53959 157.92806 -43.7068 -21.59308 -62.56699 -16.21469 87.14688 39.10667 -76.69758 -75.22934 21.88683 114.4688 -19.04633 33.74789 -140.42776 -15.54912 1.92992 -1.62229 100.3058 9.8078 3.87316 -76.56769 -13.33245 4.63727 4.87988
-0.61085 -0.62359 0.02198 122.14069 34.36674 -41.28742 5.22259 9.22673 -8.68933 -62.28506 12.42836 -2.11994 -62.57796 -16.19773 -87.86877 12.23735 159.63798 -44.25898 -22.06375 -62.56699 -16.21469 87.14686 38.47519 -76.67925 -75.22931 21.88651 115.5435 -19.05055 34.11767 -140.64863 -15.50395 1.64034 -1.77284 100.18903 9.55324 4.13421 -76.61135 -13.2613 4.64566 4.87998
-0.60843 -0.62346 0.02221 122.10562 34.33886 -40.07578 5.77916 8.77328 -10.1992 -62.1931 10.28857 -2.11994 -62.56649 -9.8807 -86.86639 19.98735 158.55017 -44.46053 -21.73944 -62.56698 -16.21457 87.14685 37.92917 -76.63977 -75.22925 21.886 117.07504 -19.43071 34.68485 -140.9017 -15.71264 1.80186 -1.69573 100.20178 9.20512 4.70667 -76.71878 -13.13293 4.65627 4.87779
-0.60616 -0.62343 0.02243 122.04781 34.42053 -38.97089 6.23189 8.45677 -11.60331 -62.0913 8.1281 -2.11994 -62.56343 -3.98743 -87.15083 26.63371 158.80155 -44.82084 -21.78866 -62.56698 -16.21467 87.14683 37.3481 -76.60995 -75.22921 21.88559 118.33408 -19.57625 35.1179 -141.14068 -15.79082 1.74431 -1.72894 100.1873 8.9052 5.0834 -76.85172 -13.0353 4.6646 4.87625
-0.60399 -0.62334 0.02266 122.02904 34.4024 -37.78552 6.81618 8.06398 -13.14285 -62.01878 5.82968 -2.11994 -62.57157 2.53271 -87.23765 34.00377 158.87086 -45.19775 -21.81138 -62.56697 -16.21459 87.14682 36.74875 -76.58005 -75.22915 21.88511 119.85319 -19.97139 35.73021 -141.37679 -15.91996 1.72346 -1.74461 100.03482 8.58531 5.6831 -76.75071 -12.91647 4.6789 4.87657
-0.60153 -0.62332 0.02288 121.93615 34.54361 -36.71849 7.16633 7.76374 -14.43553 -61.88773 3.85085 -2.11994 -62.56284 7.89124 -87.06077 40.34701 158.6184 -45.45668 -21.69343 -62.56697 -16.21419 87.1468 36.21316 -76.54508 -75.22911 21.88473 120.94858 -19.94784 36.02274 -141.62701 -16.01062 1.74878 -1.735 100.20493 8.28082 5.89397 -77.15771 -12.82987 4.68054 4.87221
-0.59833 -0.6236 0.02308 121.6372 35.19201 -36.06208 6.81452 7.80994 -15.03753 -61.58624 2.71531 -2.11994 -62.52831 9.89696 -86.8068 43.42605 158.11682 -45.41159 -21.34787 -62.56697 -16.21532 87.1468 35.77223 -76.50369 -75.2291 21.88464 120.7118 -18.62584 35.34004 -141.905 -15.90574 1.71112 -1.75121 101.20022 8.07152 4.96186 -78.90322 -12.83171 4.65303 4.85797
-0.59487 -0.62394 0.02326 121.26199 36.00236 -35.52429 6.22542 7.952 -15.37938 -61.2273 1.90173 -2.11994 -62.48414 10.71213 -86.36524 45.38673 157.37948 -45.27009 -20.88977 -62.56697 -16.2135 87.1468 35.39995 -76.45781 -75.2291 21.88465 120.04428 -16.88371 34.33757 -142.19678 -15.76136 1.72369 -1.74035 102.52133 7.87494 3.62695 -81.16758 -12.87071 4.61149 4.83869
-0.59156 -0.6242 0.02343 120.91856 36.72351 -34.90889 5.75497 8.03169 -15.8204 -60.89935 0.95006 -2.11994 -62.44606 12.0717 -85.99644 47.81364 156.76621 -45.21035 -20.50212 -62.56697 -16.21424 87.1468 35.03984 -76.41198 -75.2291 21.88462 119.60735 -15.36552 33.51076 -142.4844 -15.65254 1.76504 -1.71579 103.71685 7.65319 2.47335 -83.22515 -12.90214 4.57225 4.82005
